<?xml version="1.0" standalone="no"?>
<!DOCTYPE svg PUBLIC "-//W3C//DTD SVG 20010904//EN"
 "http://www.w3.org/TR/2001/REC-SVG-20010904/DTD/svg10.dtd">
<svg version="1.0" xmlns="http://www.w3.org/2000/svg"
 width="327.000000pt" height="305.000000pt" viewBox="0 0 327.000000 305.000000"
 preserveAspectRatio="xMidYMid meet">

<g transform="translate(0.000000,305.000000) scale(0.100000,-0.100000)"
fill="#000000" stroke="none">
<path d="M1720 2980 c0 -5 5 -10 10 -10 6 0 10 5 10 10 0 6 -4 10 -10 10 -5 0
-10 -4 -10 -10z"/>
<path d="M1625 2910 c0 -38 3 -70 8 -70 4 0 7 26 7 58 l0 57 28 -31 c15 -18
34 -41 42 -53 20 -29 30 -26 30 9 0 17 -5 30 -12 30 -7 0 -26 16 -41 35 -15
19 -36 35 -45 35 -14 0 -17 -11 -17 -70z"/>
<path d="M1831 2944 c-40 -70 -43 -77 -31 -69 6 4 16 19 21 33 10 25 11 25 21
9 5 -10 7 -21 4 -24 -3 -3 2 -12 10 -20 8 -8 12 -19 9 -24 -4 -5 5 -9 19 -9
22 0 25 3 17 18 -14 27 -29 65 -38 96 l-9 30 -23 -40z"/>
<path d="M1504 2954 c-5 -18 -30 -82 -41 -111 -3 -7 0 -13 6 -13 6 0 11 8 11
19 0 28 47 34 64 9 8 -11 21 -18 30 -16 13 2 9 15 -24 67 -32 53 -40 61 -46
45z m16 -60 c0 -8 -7 -14 -15 -14 -17 0 -18 2 -9 24 7 18 24 12 24 -10z"/>
<path d="M1363 2949 c-13 -5 -23 -16 -23 -24 0 -9 4 -14 9 -11 8 6 31 -58 31
-89 0 -11 5 -15 16 -11 9 3 17 6 20 6 2 0 0 8 -3 17 -4 9 -11 40 -17 68 -10
49 -13 52 -33 44z"/>
<path d="M1963 2937 c-28 -28 -30 -77 -5 -100 25 -23 35 -21 22 3 -8 14 -8 32
0 60 13 47 49 63 79 36 19 -17 31 -21 31 -8 0 11 -52 32 -79 31 -15 0 -36 -10
-48 -22z"/>
<path d="M1238 2908 c12 -6 22 -14 22 -18 0 -3 14 -22 30 -40 17 -18 30 -38
31 -44 0 -6 5 0 10 14 7 16 7 26 0 28 -6 2 -20 19 -31 38 -18 27 -28 34 -53
33 -30 0 -31 -1 -9 -11z"/>
<path d="M2129 2855 c-25 -60 -25 -65 -8 -65 10 0 20 -4 23 -9 10 -16 55 -19
68 -4 10 12 7 13 -15 8 -40 -10 -55 -1 -50 29 5 27 28 36 35 14 3 -7 7 -6 11
5 4 12 1 17 -9 17 -13 0 -15 7 -10 35 12 60 -16 41 -45 -30z"/>
<path d="M2218 2892 c9 -10 19 -17 21 -16 6 5 -20 34 -30 34 -5 0 -1 -8 9 -18z"/>
<path d="M2298 2806 c2 -39 6 -73 8 -75 2 -2 18 9 36 25 18 15 25 25 16 21
-15 -5 -18 0 -18 37 0 35 -4 45 -23 53 -22 10 -22 10 -19 -61z"/>
<path d="M1067 2855 c-11 -8 -17 -23 -15 -36 2 -18 13 -26 48 -34 38 -10 45
-15 44 -35 -1 -22 0 -22 13 -5 7 11 13 22 13 26 0 13 -31 39 -45 39 -8 0 -26
5 -41 10 -25 10 -26 12 -12 26 12 13 20 14 37 5 17 -10 20 -9 15 4 -8 19 -33
19 -57 0z"/>
<path d="M2035 2857 c4 -8 -1 -22 -10 -31 -15 -15 -15 -16 7 -16 15 0 27 9 35
25 6 14 7 25 3 25 -5 0 -16 3 -24 6 -12 4 -15 2 -11 -9z"/>
<path d="M980 2811 c0 -5 5 -13 10 -16 6 -3 10 -2 10 4 0 5 -4 13 -10 16 -5 3
-10 2 -10 -4z"/>
<path d="M1260 2799 c0 -11 4 -18 10 -14 5 3 7 12 3 20 -7 21 -13 19 -13 -6z"/>
<path d="M2393 2808 c-4 -7 -6 -20 -5 -29 2 -9 -6 -32 -18 -52 -19 -32 -19
-35 -4 -41 9 -4 17 -5 18 -4 1 2 14 30 29 62 22 47 26 61 15 67 -18 12 -26 11
-35 -3z"/>
<path d="M937 2793 c-4 -3 -7 -19 -7 -35 0 -26 3 -28 38 -28 21 0 48 -7 60
-16 22 -15 27 -9 16 20 -4 11 -19 16 -44 16 -38 0 -67 21 -55 40 7 11 2 14 -8
3z"/>
<path d="M2256 2773 c-6 -14 -5 -15 5 -6 7 7 10 15 7 18 -3 3 -9 -2 -12 -12z"/>
<path d="M2476 2736 c-10 -22 -28 -51 -39 -63 -11 -13 -15 -23 -9 -23 6 0 28
-11 48 -25 20 -14 41 -22 47 -18 5 3 -5 11 -23 17 -40 13 -47 28 -24 50 11 12
20 14 28 6 7 -5 16 -7 19 -3 9 9 9 23 0 22 -29 -5 -36 1 -21 19 27 31 29 41
11 50 -15 8 -21 3 -37 -32z"/>
<path d="M1515 2755 c-151 -21 -296 -62 -395 -112 -25 -13 -49 -23 -55 -23 -5
0 -22 -10 -38 -23 l-27 -22 -3 -640 -2 -640 130 -8 c251 -16 788 2 955 32 30
6 84 15 120 21 73 12 184 35 245 50 22 6 67 17 100 25 33 7 83 20 110 29 28 9
75 23 105 32 30 9 78 25 105 35 28 9 61 21 74 25 14 3 39 14 55 24 27 15 31
22 28 56 -4 66 -48 240 -64 259 -4 5 -8 16 -8 25 0 38 -117 249 -189 340 -36
46 -186 198 -231 235 -32 26 -219 145 -228 145 -4 0 -29 11 -56 25 -27 14 -54
25 -59 25 -5 0 -23 6 -40 14 -31 13 -65 23 -152 46 -63 17 -264 40 -330 39
-33 -1 -100 -7 -150 -14z"/>
<path d="M845 2740 c-3 -5 3 -10 14 -10 12 0 21 5 21 10 0 6 -6 10 -14 10 -8
0 -18 -4 -21 -10z"/>
<path d="M1070 2746 c0 -2 7 -9 15 -16 13 -11 14 -10 9 4 -5 14 -24 23 -24 12z"/>
<path d="M2540 2740 c0 -5 5 -10 10 -10 6 0 10 -7 10 -15 0 -8 5 -15 10 -15
17 0 11 25 -10 38 -12 7 -20 8 -20 2z"/>
<path d="M813 2723 c-20 -8 -15 -29 17 -82 24 -38 35 -48 50 -44 25 7 25 15 0
31 -26 16 -27 46 -1 39 17 -4 18 -2 8 13 -10 17 -12 17 -22 3 -11 -14 -14 -13
-28 7 -9 13 -14 27 -11 32 6 9 5 9 -13 1z"/>
<path d="M967 2674 c2 -7 11 -10 19 -7 19 7 18 10 -5 16 -13 3 -18 1 -14 -9z"/>
<path d="M2586 2633 c-25 -26 -42 -51 -39 -57 4 -6 9 -4 11 4 5 17 52 70 62
70 3 0 4 -33 2 -72 l-5 -72 41 44 c22 25 39 47 36 49 -2 2 -12 -7 -23 -20
l-20 -24 -1 63 c0 34 -4 62 -10 62 -5 0 -30 -21 -54 -47z"/>
<path d="M727 2664 c-3 -5 1 -15 9 -22 16 -14 18 -5 5 17 -5 7 -11 9 -14 5z"/>
<path d="M930 2649 c0 -11 4 -18 10 -14 5 3 7 12 3 20 -7 21 -13 19 -13 -6z"/>
<path d="M655 2607 c-7 -9 0 -22 24 -47 19 -19 27 -26 18 -14 -24 29 -21 37
11 30 74 -18 102 -23 102 -17 0 3 -12 20 -26 36 -14 17 -22 24 -18 16 7 -14
-20 -13 -81 4 -11 2 -25 -1 -30 -8z"/>
<path d="M2730 2572 c0 -4 9 -8 19 -8 11 0 17 4 15 8 -3 4 -12 8 -20 8 -8 0
-14 -4 -14 -8z"/>
<path d="M584 2540 c-8 -8 4 -27 39 -62 37 -39 51 -48 58 -37 8 14 1 24 -54
80 -33 33 -30 32 -43 19z"/>
<path d="M2745 2522 c-45 -42 -56 -58 -50 -74 4 -11 17 -4 51 29 25 23 52 43
60 43 14 0 14 2 0 15 -20 20 -26 19 -61 -13z"/>
<path d="M710 2516 c0 -2 8 -10 18 -17 15 -13 16 -12 3 4 -13 16 -21 21 -21
13z"/>
<path d="M512 2470 c-12 -10 -22 -26 -22 -35 0 -34 50 -60 66 -34 3 6 19 9 35
7 20 -3 29 0 29 9 0 21 -26 26 -70 15 -25 -6 -42 -6 -46 -1 -8 14 14 37 39 41
17 2 18 5 7 9 -9 4 -26 -1 -38 -11z"/>
<path d="M430 2376 c0 -2 7 -7 16 -10 8 -3 12 -2 9 4 -6 10 -25 14 -25 6z"/>
<path d="M470 2351 c0 -5 9 -13 20 -16 21 -7 37 -46 25 -64 -10 -16 -39 -13
-63 7 -63 53 -58 51 -71 31 -9 -15 -8 -19 3 -19 8 0 16 -4 18 -8 2 -4 20 -18
40 -30 29 -18 41 -21 57 -13 23 13 35 43 26 70 -6 21 -55 58 -55 42z"/>
<path d="M560 2350 c0 -5 7 -10 15 -10 8 0 15 5 15 10 0 6 -7 10 -15 10 -8 0
-15 -4 -15 -10z"/>
<path d="M631 2263 c-12 -16 -24 -32 -29 -38 -35 -45 -82 -114 -82 -120 0 -3
-15 -32 -33 -63 -108 -187 -173 -505 -148 -731 6 -58 16 -123 21 -143 6 -21
15 -57 21 -80 19 -74 59 -180 97 -257 36 -75 126 -214 163 -254 19 -21 19 -12
19 846 0 477 -2 867 -4 867 -3 0 -14 -12 -25 -27z"/>
<path d="M320 2218 c-27 -41 -28 -52 -6 -63 49 -26 71 -41 82 -55 10 -11 15
-6 33 32 25 55 19 78 -19 78 -16 0 -30 7 -34 15 -8 22 -39 18 -56 -7z m50 -33
c0 -22 -15 -25 -39 -9 -17 12 -19 19 -10 30 13 16 49 2 49 -21z m60 -30 c0
-22 -15 -25 -39 -9 -17 12 -19 19 -10 30 13 16 49 2 49 -21z"/>
<path d="M222 2050 c-18 -30 -14 -36 8 -12 21 22 25 32 12 32 -4 0 -13 -9 -20
-20z"/>
<path d="M273 2008 c1 -9 -10 -12 -35 -10 -29 2 -38 -1 -38 -13 0 -8 6 -15 13
-15 7 0 32 -9 55 -20 22 -11 46 -20 52 -20 20 0 9 31 -15 40 -24 9 -35 30 -15
30 6 0 10 5 10 10 0 6 -7 10 -15 10 -8 0 -14 -6 -12 -12z"/>
<path d="M179 1900 l-24 -19 48 -1 c59 0 94 -28 76 -61 -9 -18 -17 -20 -52
-15 -48 8 -64 19 -70 49 -3 15 -5 12 -6 -10 -1 -23 6 -37 25 -52 43 -34 86
-26 109 20 20 39 19 52 -10 83 -29 31 -64 33 -96 6z"/>
<path d="M228 1645 c4 -33 3 -35 -27 -35 -24 0 -31 4 -29 16 2 10 -2 19 -9 21
-7 3 -9 -3 -6 -16 5 -18 2 -19 -25 -12 -24 7 -32 6 -37 -6 -3 -9 -4 -17 -3
-18 2 -2 33 -6 69 -10 l65 -7 12 40 c15 50 15 62 -1 62 -9 0 -12 -11 -9 -35z"/>
<path d="M2999 1494 c-28 -15 -145 -58 -264 -98 -38 -13 -119 -36 -180 -50
-60 -15 -123 -31 -140 -36 -16 -4 -50 -11 -75 -15 -25 -3 -76 -13 -115 -20
-69 -14 -260 -36 -480 -56 -179 -16 -590 -12 -713 7 l-32 5 1 -483 0 -483 57
-26 c145 -68 217 -95 282 -108 25 -5 81 -16 125 -25 107 -21 333 -21 440 0 44
9 98 20 120 25 50 10 167 48 180 59 6 4 21 11 34 15 14 4 68 32 120 63 89 51
129 78 206 142 39 32 141 137 168 174 12 16 36 45 52 65 32 38 51 66 62 91 4
8 9 17 12 20 12 10 91 176 91 191 0 8 4 19 8 25 16 19 43 127 72 288 12 68 14
247 3 245 -5 -1 -20 -7 -34 -15z"/>
<path d="M160 1492 c-36 -2 -68 -8 -72 -15 -11 -17 -10 -57 1 -57 5 0 7 9 4
20 -5 19 0 20 61 20 51 0 68 4 73 15 7 21 8 20 -67 17z"/>
<path d="M80 1365 c0 -9 6 -12 15 -9 8 4 15 7 15 9 0 2 -7 5 -15 9 -9 3 -15 0
-15 -9z"/>
<path d="M208 1358 c8 -10 11 -26 7 -38 -5 -16 -15 -20 -58 -21 -29 -1 -55 -1
-59 0 -5 0 -8 -7 -8 -16 0 -16 8 -18 57 -15 32 2 64 9 71 14 18 15 15 63 -5
79 -16 13 -17 12 -5 -3z"/>
<path d="M97 1213 c-10 -9 -9 -23 2 -23 5 0 11 7 15 15 5 15 -5 20 -17 8z"/>
<path d="M218 1189 c-9 -5 -38 -10 -65 -12 l-49 -2 7 -38 c3 -21 10 -41 14
-45 4 -4 5 5 1 20 -6 29 -9 27 87 44 38 6 42 11 29 31 -5 8 -13 8 -24 2z"/>
<path d="M235 1076 c-16 -7 -47 -16 -67 -20 -21 -4 -38 -10 -38 -14 0 -15 18
-34 23 -25 3 5 31 16 62 23 42 10 55 18 55 32 0 10 -1 18 -2 18 -2 -1 -16 -7
-33 -14z"/>
<path d="M155 970 c-3 -5 -2 -10 4 -10 5 0 13 5 16 10 3 6 2 10 -4 10 -5 0
-13 -4 -16 -10z"/>
<path d="M276 973 c-13 -14 -99 -42 -109 -36 -5 3 -4 -4 2 -15 12 -22 27 -20
96 9 17 7 33 12 36 11 4 -1 5 8 2 18 -6 21 -15 25 -27 13z"/>
<path d="M180 882 c0 -12 19 -26 26 -19 2 2 -2 10 -11 17 -9 8 -15 8 -15 2z"/>
<path d="M286 864 c-9 -9 -16 -32 -16 -55 0 -33 -3 -40 -17 -37 -11 2 -19 14
-21 31 -2 15 -8 27 -13 27 -11 0 -11 0 2 -38 21 -62 76 -48 81 21 3 36 6 42
25 41 18 0 20 2 12 13 -15 17 -34 16 -53 -3z"/>
<path d="M348 817 c-3 -15 -2 -27 3 -27 13 0 17 14 9 35 -6 17 -7 16 -12 -8z"/>
<path d="M352 748 c-17 -11 -32 -22 -32 -25 0 -2 5 -1 10 2 11 7 6 -27 -12
-73 -5 -14 -4 -30 2 -40 5 -9 10 -12 10 -6 0 6 14 17 30 24 17 7 30 17 30 22
0 6 -7 5 -15 -2 -26 -22 -28 -4 -6 56 11 32 19 59 18 60 -1 2 -17 -6 -35 -18z"/>
<path d="M416 674 c-11 -8 -16 -14 -10 -14 13 0 39 18 34 24 -3 2 -14 -2 -24
-10z"/>
<path d="M448 616 c-51 -41 -72 -56 -81 -56 -5 0 -4 -7 3 -15 11 -13 16 -12
44 7 17 12 33 25 36 30 3 4 15 11 27 15 18 7 19 11 9 24 -11 15 -14 15 -38 -5z"/>
</g>
</svg>
