<?xml version="1.0" standalone="no"?>
<!DOCTYPE svg PUBLIC "-//W3C//DTD SVG 20010904//EN"
 "http://www.w3.org/TR/2001/REC-SVG-20010904/DTD/svg10.dtd">
<svg version="1.0" xmlns="http://www.w3.org/2000/svg"
 width="327.000000pt" height="305.000000pt" viewBox="0 0 327.000000 305.000000"
 preserveAspectRatio="xMidYMid meet">
<metadata>
Created by potrace 1.16, written by Peter Selinger 2001-2019
</metadata>
<g transform="translate(0.000000,305.000000) scale(0.100000,-0.100000)"
fill="#000000" stroke="none">
<path d="M1515 2755 c-151 -21 -296 -62 -395 -112 -25 -13 -49 -23 -55 -23 -5
0 -22 -10 -38 -23 l-27 -22 -3 -640 -2 -640 130 -8 c251 -16 788 2 955 32 30
6 84 15 120 21 73 12 184 35 245 50 22 6 67 17 100 25 33 7 83 20 110 29 28 9
75 23 105 32 30 9 78 25 105 35 28 9 61 21 74 25 14 3 39 14 55 24 27 15 31
22 28 56 -4 66 -48 240 -64 259 -4 5 -8 16 -8 25 0 38 -117 249 -189 340 -36
46 -186 198 -231 235 -32 26 -219 145 -228 145 -4 0 -29 11 -56 25 -27 14 -54
25 -59 25 -5 0 -23 6 -40 14 -31 13 -65 23 -152 46 -63 17 -264 40 -330 39
-33 -1 -100 -7 -150 -14z"/>
<path d="M631 2263 c-12 -16 -24 -32 -29 -38 -35 -45 -82 -114 -82 -120 0 -3
-15 -32 -33 -63 -108 -187 -173 -505 -148 -731 6 -58 16 -123 21 -143 6 -21
15 -57 21 -80 19 -74 59 -180 97 -257 36 -75 126 -214 163 -254 19 -21 19 -12
19 846 0 477 -2 867 -4 867 -3 0 -14 -12 -25 -27z"/>
<path d="M2999 1494 c-28 -15 -145 -58 -264 -98 -38 -13 -119 -36 -180 -50
-60 -15 -123 -31 -140 -36 -16 -4 -50 -11 -75 -15 -25 -3 -76 -13 -115 -20
-69 -14 -260 -36 -480 -56 -179 -16 -590 -12 -713 7 l-32 5 1 -483 0 -483 57
-26 c145 -68 217 -95 282 -108 25 -5 81 -16 125 -25 107 -21 333 -21 440 0 44
9 98 20 120 25 50 10 167 48 180 59 6 4 21 11 34 15 14 4 68 32 120 63 89 51
129 78 206 142 39 32 141 137 168 174 12 16 36 45 52 65 32 38 51 66 62 91 4
8 9 17 12 20 12 10 91 176 91 191 0 8 4 19 8 25 16 19 43 127 72 288 12 68 14
247 3 245 -5 -1 -20 -7 -34 -15z"/>
</g>
</svg>
